<svg id="Capa_1" data-name="Capa 1" xmlns="http://www.w3.org/2000/svg" viewBox="0 0 854 768"><defs><style>.cls-1{fill:#ff7400;}.cls-2{fill:#0096c8;}</style></defs><path class="cls-1" d="M133.6,249.56c39-58.5,79-124.06,82.37-133.13a21.13,21.13,0,0,1,13.44,7.73l1-3.36,1-13.79c25.22.34,56.15,23.2,56.15,48.08,0,12.78-2.69,21.85-6.05,33.62-11.1,38.66-25.22,107.92-26.23,163.73-18.83,0-44.38-16.47-50.43-33.28a161.69,161.69,0,0,1-.67-18.83c0-7.06,0-14.79.67-23.2-14.46.34-30.59,1-45.39,2.36-17.82,29.25-35.64,56.48-48.75,73.29-18.49-.67-29.58-16.47-30.59-28.58,7.39-9.08,16.14-20.84,25.55-34.29a65.05,65.05,0,0,1-13.45,2C76.78,291.93,64,276.8,64,259.31a37.84,37.84,0,0,1,.67-6.05C87.2,251.24,111.07,250.24,133.6,249.56Zm44.37-.67,28.58.67c2-21.18,5-43.7,9.08-65.22C205.21,202.83,192.1,225.69,178,248.89Z"/><path class="cls-1" d="M372,230.06c-8.06,17.49-20.17,46.74-29.58,70.27-5.72,17.48-16.81,42.7-24.21,52.11-17.82-.33-42.36-12.77-51.1-30.93,0,0,10.76-23.53,15.8-39.67C292,253.6,302.37,209.56,307.08,181c23.87,1.68,52.78,22.86,52.78,49.76,0,9.07-2.69,18.49-5,28.24,7.73-24.21,15.8-56.15,20.17-64.22-.34-5.71-1-10.76-1-10.76a15.38,15.38,0,0,1,3.7-.33c19.84,0,52.11,15.13,52.11,46.39,0,25.89-19.16,61.53-27.9,71.28a10.3,10.3,0,0,1-3,.34c-13.78,0-31.27-10.43-38-25.89A217,217,0,0,0,372,230.06Z"/><path class="cls-1" d="M460.73,179.63c4.7-17.82,8.74-35.3,11.09-52.45,26.22,1,55.81,21.52,55.81,51.11a25,25,0,0,1-.34,3.7c12.11,4.7,18.5,17.14,18.5,25.21v1.68a222.26,222.26,0,0,0-26.56,1.68c-10.09,26.23-25.89,57.5-31.61,81l-2,8.41c19.5-6.06,46.07-20.85,56.15-28.25,0,26.56-34.63,80.69-66.9,80.69-24.21,0-43.37-20.51-43.37-50.43,0-12.1,2.68-27.9,7.73-47.4,3.36-12.78,7.39-26.56,11.76-41-10.75-3-17.14-10.09-17.14-24.21a39.08,39.08,0,0,1,3.7-15.8C441.23,176.61,453.33,179,460.73,179.63Z"/><path class="cls-1" d="M668.74,463.44a21,21,0,0,1,.67-5.38c6.72-6.38,30.26-23.19,48.41-36-18.82-16.47-42.7-39-49.42-45.72.34-11.77,12.78-27.24,23.53-30.6,10.09,8.74,72,55.48,92.46,69.93-.33,6.39-8.07,16.14-18.15,21.86-25.89,21.18-64.89,53.79-73.3,60.18C681.18,495.72,668.74,478.57,668.74,463.44Z"/><path class="cls-2" d="M235,471.39c-7.73,0-20.17-10.09-20.17-26.56a48.9,48.9,0,0,1,.67-7.73c-5,0-26.56,45-46.39,45-10.43,0-25.56-7.06-25.56-31.94,0-37.66,46.07-85.74,91.45-85.74,9.75,0,18.16,9.75,18.16,14.46s-8.07,1.68-22.19,7.73c-33.29,14.12-61.53,63.55-61.53,76,0,2,1,3,2.36,3,8.07,0,44-46.39,53.45-59.51,4.37-6.38,8.07-11.09,11.77-11.09,7.06,0,13.45,7.73,13.45,14.46,0,11.09-14.46,23.53-14.46,44,0,9.75,3.36,11.43,3.36,13.45C239.38,468.7,237.37,471.39,235,471.39Z"/><path class="cls-2" d="M373.53,328.16c14.12,0,36.31,15.13,36.31,43.71,0,42.7-44,90.78-65.56,90.78-10.09,0-19.16-6.39-19.16-20.85,0-6.05,2-14.46,2-14.46-9.08,13.12-33.95,53.13-46.39,53.13-11.1,0-26.56-10.09-26.56-25.56,0-36,37.65-56.48,37.65-88.42,0-3.7,1-5.38,3-5.38,6.72,0,16.13,14.12,16.13,28.92,0,22.19-26.56,57.82-26.56,66.9a2.4,2.4,0,0,0,2.36,2.69c3,0,23.2-23.53,34.29-43.37C333.86,393.72,337.22,388,341.25,388c9.75,0,16.81,11.43,16.81,19.16,0,13.45-12.77,25.89-12.77,38.33,0,2,1,3.36,2.69,3.36,7.06,0,32.27-42,32.27-79.34,0-35.3-12.77-34.63-12.77-37.66C367.48,330.18,369.5,328.16,373.53,328.16Z"/><path class="cls-2" d="M494.56,471.39c-7.73,0-20.17-10.09-20.17-26.56a48.9,48.9,0,0,1,.67-7.73c-5,0-26.56,45-46.39,45-10.43,0-25.56-7.06-25.56-31.94,0-37.66,46.06-85.74,91.45-85.74,9.75,0,18.16,9.75,18.16,14.46s-8.07,1.68-22.19,7.73c-33.29,14.12-61.53,63.55-61.53,76,0,2,1,3,2.36,3,8.06,0,44-46.39,53.45-59.51,4.37-6.38,8.07-11.09,11.77-11.09,7.06,0,13.45,7.73,13.45,14.46,0,11.09-14.46,23.53-14.46,44,0,9.75,3.36,11.43,3.36,13.45C498.93,468.7,496.92,471.39,494.56,471.39Z"/><path class="cls-2" d="M592.06,499c28.91,0,38.33,14.79,38.33,18.15a4,4,0,0,1-3.36,3.7c-2.36,0-9.08-7.73-25.22-7.73a77.14,77.14,0,0,0-15.13,1.68C550,620.33,498.26,677.48,465.31,677.48c-15.47,0-31.27-15.13-31.27-36,0-47.07,72.62-117,129.44-137.17q10.1-29.25,19.17-61.53c-16.81,20.84-26.56,32.95-38.33,32.95-11.43,0-24.21-10.09-24.21-23.54,0-26.89,27.23-58.83,27.23-86.4,0-2.69,1.35-4,4.71-4,8.41,0,17.82,14.79,17.82,27.56,0,20.85-26.56,54.13-26.56,71.28a2.6,2.6,0,0,0,2.35,2.69c7.06,0,28.25-20.85,42.37-48.41,19.5-38.33,42.69-68.59,49.42-68.59s9.41,6.72,9.41,9.41c0,2.36-23.2,15.8-38.33,82.71C603.49,460,598.11,480.13,592.06,499Zm-36.31,27.57c-50.77,27.23-99.52,90.1-99.52,127.08,0,5.72,1.35,9.42,6.39,9.42C489.85,663,525.15,607.89,555.75,526.53Z"/></svg>