<svg xmlns="http://www.w3.org/2000/svg" viewBox="0 0 355.14 355.14"><defs><style>.cls-1{fill:#0096c8;}.cls-2{fill:#ffde9a;}.cls-3{fill:#ff7400;}.cls-4{fill:#ff8510;}</style></defs><g id="Layer_1" data-name="Layer 1"><path class="cls-1" d="M158.8,119.11h26.93V35s-16.83-19.3-26.93,2.13Z"/><polygon class="cls-2" points="158.8 135.94 184.76 135.94 209.29 206.62 172.2 262.34 132.87 206.75 158.8 135.94"/><rect class="cls-1" x="152.07" y="119.11" width="40.39" height="13.46"/><ellipse class="cls-3" cx="172.26" cy="191.47" rx="13.46" ry="11.78"/><rect class="cls-1" x="152.07" y="267.21" width="40.39" height="23.56"/><rect class="cls-4" x="253.04" y="270.57" width="20.2" height="13.46"/><rect class="cls-4" x="71.28" y="270.57" width="20.2" height="13.46"/><path d="M184.71,120.05H159.66a2.19,2.19,0,0,1-2.19-2.19V38.55a14.72,14.72,0,1,1,29.43,0v79.31A2.19,2.19,0,0,1,184.71,120.05Zm-22.87-4.38h20.68V38.55a10.34,10.34,0,1,0-20.68,0Z"/><path d="M171.71,265.87h0a2.23,2.23,0,0,1-1.82-1l-36.76-56.22a2.19,2.19,0,0,1-.24-1.91l25-73.21a2.18,2.18,0,0,1,2.07-1.49h24.5a2.18,2.18,0,0,1,2.07,1.49l25,73.24a2.18,2.18,0,0,1-.26,1.92l-37.75,56.2A2.16,2.16,0,0,1,171.71,265.87Zm-34.35-58.71,34.37,52.56L207,207.17l-24.15-70.74H161.5Z"/><path d="M194.29,136.43H150.08a2.19,2.19,0,0,1-2.19-2.19V117.86a2.19,2.19,0,0,1,2.19-2.19h44.21a2.19,2.19,0,0,1,2.19,2.19v16.38A2.19,2.19,0,0,1,194.29,136.43Zm-42-4.38h39.84v-12H152.27Z"/><path d="M172.19,204.56a14,14,0,1,1,14-14A14,14,0,0,1,172.19,204.56Zm0-23.63a9.63,9.63,0,1,0,9.63,9.62A9.62,9.62,0,0,0,172.19,180.93Z"/><path d="M171.71,265.87h0a2.19,2.19,0,0,1-2.17-2.21l.48-61.34a2.19,2.19,0,0,1,2.19-2.17h0a2.19,2.19,0,0,1,2.17,2.2l-.47,61.35A2.19,2.19,0,0,1,171.71,265.87Z"/><path d="M191.57,290.29H152.82a2.19,2.19,0,0,1-2.19-2.19V266.25a2.19,2.19,0,0,1,2.19-2.19h38.75a2.19,2.19,0,0,1,2.19,2.19V288.1A2.19,2.19,0,0,1,191.57,290.29ZM155,285.91h34.37V268.43H155Z"/><path d="M272.27,284.91H252.62a2.19,2.19,0,0,1-2.19-2.19V271.63a2.19,2.19,0,0,1,2.19-2.19h19.65a2.19,2.19,0,0,1,2.19,2.19v11.09A2.19,2.19,0,0,1,272.27,284.91Zm-17.46-4.38h15.27v-6.71H254.81Z"/><path d="M252.62,279.37H191.57a2.19,2.19,0,1,1,0-4.37h61.05a2.19,2.19,0,1,1,0,4.37Z"/><path d="M91.61,284.91H72a2.19,2.19,0,0,1-2.19-2.19V271.63A2.19,2.19,0,0,1,72,269.44H91.61a2.19,2.19,0,0,1,2.19,2.19v11.09A2.19,2.19,0,0,1,91.61,284.91Zm-17.44-4.38H89.42v-6.71H74.17Z"/><path d="M152.66,279.37h-61a2.19,2.19,0,1,1,0-4.37h61.05a2.19,2.19,0,1,1,0,4.37Z"/></g></svg>