<svg xmlns="http://www.w3.org/2000/svg" viewBox="0 0 355.14 355.14"><defs><style>.cls-1{fill:#ffde9a;}.cls-2{fill:#0096c8;}.cls-3{fill:#ff7400;}</style></defs><g id="Layer_1" data-name="Layer 1"><path class="cls-1" d="M250.81,105.35s13.73,10.16,16.31,34.74S282.58,180,282.58,180s15.4,23.86-19.23,84.83c-10.48,7.53-17.06,8.67-17.06,8.67l-30,3.14-36.47,11L161,286.35S137.31,273,127.77,260.91s-30.4-28.25-30.4-28.25-14.08-18-8.39-34.59S96.14,150,96.14,150s5-30.48,23.63-39.87c18.66-12.75,30.32-19.41,30.32-19.41s19.1-1.61,32.33,4.21c16.59,2.45,46.92,3.85,46.92,3.85l24,6.15"/><path class="cls-2" d="M137.28,142.89s-.54-10.2,6.2-13.56a21.42,21.42,0,0,1,20.19,0c6.73,3.36,6.73,6.73,6.73,13.46s-20.49,15.15-20.49,15.15-12.11,1.05-12.64-7.05S137.28,142.89,137.28,142.89Z"/><path class="cls-3" d="M119.27,185.5s-.54-10.2,6.19-13.57a21.48,21.48,0,0,1,20.19,0c6.74,3.37,6.74,6.73,6.74,13.47s-20.5,15.14-20.5,15.14-12.1,1.05-12.63-7S119.27,185.5,119.27,185.5Z"/><path class="cls-2" d="M135.74,230.62s-.54-10.2,6.19-13.57a21.5,21.5,0,0,1,20.2,0c6.73,3.37,6.73,6.73,6.73,13.47s-20.5,15.14-20.5,15.14-12.1,1.05-12.63-7S135.74,230.62,135.74,230.62Z"/><path class="cls-3" d="M185.66,240.41s-.55-10.2,6.19-13.57a21.48,21.48,0,0,1,20.19,0c6.73,3.37,6.73,6.73,6.73,13.47s-20.49,15.14-20.49,15.14-12.11,1.05-12.64-7S185.66,240.41,185.66,240.41Z"/><path class="cls-2" d="M228.25,216.26s-.54-10.2,6.19-13.57a21.48,21.48,0,0,1,20.19,0c6.74,3.37,6.74,6.74,6.74,13.47s-20.5,15.15-20.5,15.15-12.1,1-12.63-7.05S228.25,216.26,228.25,216.26Z"/><path class="cls-3" d="M199.7,167.23c.75-.6,9.15-7.94,15.29-8.39s14.55-9.6,15.6-15.6,4.5-33.89-16.2-17.1S199.7,167.23,199.7,167.23Z"/><polygon class="cls-2" points="233.97 127.57 250.59 102.3 233.97 93.23 222.12 118.19 233.97 127.57"/><path class="cls-3" d="M251.81,102.3l-17.27-9.45s37-58.59,49.42-64.24C275.73,58.06,251.81,102.3,251.81,102.3Z"/><path d="M250.59,104.49a2.2,2.2,0,0,1-1.09-.29l-15.72-9.08a2.14,2.14,0,0,1-1-1.35A2.17,2.17,0,0,1,233,92.1c18.51-30.61,34.13-52.94,44-62.86,4.94-5,6.37-5.89,8.05-5a1.71,1.71,0,0,1,.23.13c1.58,1.05,1.52,2.83-.35,9.52-3.63,13.49-15.14,38.19-32.41,69.52a2.22,2.22,0,0,1-1.33,1A2,2,0,0,1,250.59,104.49Zm-12.68-12,11.84,6.84c16.51-30.1,27.48-53.71,30.95-66.61l.36-1.32c-.29.29-.62.61-1,1C270.68,41.8,255.73,63.11,237.91,92.45Z"/><path d="M173.7,290.4c-20.63,0-32.47-12.32-44.95-25.31-5.81-6.08-11.6-12.12-18.3-17.22-12.88-10.2-19.66-18.39-22.72-27.42s-2.47-19.52,2-34.85c3.54-12.1,3.8-21.4,4-29.6.4-15.69.71-28.09,26.25-48.92,11.61-9.43,27.38-22.23,42.25-19.59L165,88c4.3,1,7.3,1.9,9.95,2.69a75.51,75.51,0,0,0,19.46,3.56c2.92.21,6.17.29,9.58.38l3,.08a171,171,0,0,1,24.48,2.2l.42.1a2.2,2.2,0,0,1,1.49,1.28,2.22,2.22,0,0,1-.14,2c-2,3.35-4.18,7-4.87,8.2-1,1.67-2,3.39-3,5.14l-.65,1.12a6.94,6.94,0,0,0-.91,3.36,6.12,6.12,0,0,0,0,.74c.42,0,.82,0,1.21.08a2.19,2.19,0,0,1-.16,4.36,8.67,8.67,0,0,0-1.72.29l-.21,0h0c-5.53,1.53-11.73,7.64-17,16.79a39.92,39.92,0,0,0-5.14,16.19,40.51,40.51,0,0,0-.06,6.42c4.43-3.78,9.33-5.15,13.76-6.38s7.82-2.23,9.81-5.67c5.3-9.17,7.5-17.64,6-23.24a1.4,1.4,0,0,1-.09-.29,5.42,5.42,0,0,0-.42-1.11,2.19,2.19,0,0,1,3.7-2.32l.46.66a4.88,4.88,0,0,0,.55-.31,7.19,7.19,0,0,0,2.54-2.54c.85-1.45,1.67-2.9,2.49-4.34l8-14.26a2.18,2.18,0,0,1,3.28-.63c1.15.93,5.18,4.49,6.35,5.81a29.05,29.05,0,0,1,4.49,6.9c3.36,7.27,5.08,14.29,6.9,21.72l.08.34c2,8.51,4.31,18.16,9.82,28.94l.12.28c12.74,24.39,11.09,31.18,5.61,53.65l-1.61,6.63c-1.93,8.12-4.32,17.5-8.34,25.95-4.49,9.29-10.25,15.76-17.6,19.78-7.85,3.63-16.19,4.13-24.26,4.61s-16.7,1.06-25.58,4.31l-1.64.63c-8.21,3-19.46,7-27.52,8.16C176.33,290.35,175,290.4,173.7,290.4ZM158.27,91.53c-12.2,0-26,11.22-35.42,18.86C98.76,130,98.49,141,98.11,156.12c-.24,8.47-.5,18.06-4.2,30.71-4.18,14.4-4.79,24-2,32.23s9.12,15.74,21.25,25.35c6.94,5.29,12.85,11.46,18.57,17.43,13.29,13.83,24.61,25.61,45.54,24.06,7.47-1,18.46-5,26.49-7.92l1.56-.61c9.55-3.49,18.36-4.05,26.88-4.59,7.67-.46,15.6-.93,22.57-4.14,6.39-3.5,11.54-9.34,15.61-17.78,3.83-8,6.16-17.16,8-25.07l1.62-6.65c5.45-22.36,6.74-27.67-5.27-50.66a1,1,0,0,1-.08-.15l-.09-.23c-5.68-11.11-8-21-10.11-29.78-1.85-7.52-3.52-14.35-6.7-21.22a24.38,24.38,0,0,0-3.8-5.86c-.58-.65-2.35-2.28-3.85-3.6l-6.74,12q-1.23,2.18-2.52,4.39a11.52,11.52,0,0,1-4,4,8.93,8.93,0,0,1-1.83.91c.78,6.55-1.62,15-6.92,24.18-2.87,5-7.71,6.35-12.39,7.68-5.21,1.45-10.56,2.94-14.86,8.34a2.18,2.18,0,0,1-3.86-1,44.88,44.88,0,0,1-.55-12,44.42,44.42,0,0,1,5.7-18c5.32-9.19,11.45-15.5,17.49-18.06a11.13,11.13,0,0,1-.15-2.13,11.35,11.35,0,0,1,1.51-5.49l.66-1.13c1-1.74,2-3.44,3-5.15.52-.86,1.83-3,3.26-5.46a172.54,172.54,0,0,0-21-1.69l-3-.08c-3.48-.09-6.79-.17-9.78-.38a79.48,79.48,0,0,1-20.2-3.68c-2.8-.83-5.73-1.71-9.78-2.66l-2.67-.46A18.93,18.93,0,0,0,158.27,91.53ZM194,257.81c-10.61,0-10.61-10.47-10.61-14.42l.2-8c0-5.37,2.29-9.22,6.82-11.4,3.63-1.76,8.11-2,12-2s8.33.25,11.82,2.06c4.28,2.14,6.47,6,6.47,11.38,0,4.69-3.34,10.07-9.16,14.76h0C205.84,254.82,199,257.81,194,257.81Zm8.42-31.43c-3.21,0-7.25.18-10.1,1.56s-4.36,3.81-4.36,7.5l-.19,8c0,8.33,2.28,10,6.23,10s9.94-2.74,14.8-6.65h0c4.72-3.8,7.54-8,7.54-11.35,0-3.76-1.26-6.07-4.09-7.48S205.81,226.38,202.46,226.38Zm-57.32,21.77c-10.6,0-10.6-10.48-10.6-14.42l.23-8c0-5.34,2.28-9.18,6.79-11.35,3.71-1.79,8.36-2,12-2s8.21.23,11.83,2c4.3,2.17,6.47,6,6.47,11.39,0,4.71-3.34,10.1-9.17,14.79S150.07,248.15,145.14,248.15Zm8.42-31.43c-4.71,0-7.82.49-10.1,1.58-3,1.44-4.32,3.74-4.32,7.47l-.23,8c0,8.33,2.29,10,6.23,10s10-2.73,14.81-6.63h0c4.72-3.79,7.53-8.05,7.53-11.38,0-3.76-1.25-6.06-4.06-7.48C161.25,217.2,158.21,216.72,153.56,216.72Zm82.11,17c-10.61,0-10.61-10.48-10.61-14.42l.23-8c0-5.37,2.29-9.22,6.8-11.39,3.7-1.79,8.35-2,12-2s8.22.23,11.83,2c4.3,2.21,6.47,6.05,6.47,11.43,0,4.72-3.34,10.1-9.17,14.75h0C247.46,230.69,240.57,233.68,235.67,233.68Zm8.41-31.47c-4.71,0-7.82.49-10.09,1.59-3,1.42-4.33,3.8-4.33,7.51l-.22,8c0,8.33,2.28,10,6.23,10s9.93-2.74,14.8-6.65h0c4.72-3.77,7.54-8,7.54-11.34,0-3.71-1.3-6.1-4.08-7.53C251.77,202.7,248.73,202.21,244.08,202.21Zm-116.43.69C117,202.9,117,192.4,117,188.45l.23-8c0-5.35,2.29-9.19,6.8-11.35,3.63-1.76,8.1-2,12-2s8.31.24,11.84,2c4.28,2.17,6.45,6,6.45,11.36,0,4.75-3.34,10.14-9.17,14.79S132.57,202.9,127.65,202.9Zm8.42-31.43c-3.2,0-7.24.18-10.1,1.56s-4.32,3.74-4.32,7.47l-.23,8c0,8.36,2.28,10,6.23,10s9.95-2.74,14.8-6.65h0c4.72-3.76,7.53-8,7.53-11.37,0-3.74-1.25-6-4.06-7.46S139.42,171.47,136.07,171.47Zm9.63-11.34c-10.6,0-10.6-10.48-10.6-14.42l.19-8c0-5.31,2.3-9.16,6.82-11.37,3.71-1.81,8.37-2,12-2s8.23.24,11.8,2c4.32,2.19,6.5,6,6.5,11.42,0,4.69-3.34,10.07-9.17,14.76S150.66,160.13,145.7,160.13Zm8.42-31.47c-4.71,0-7.83.49-10.09,1.59-3,1.47-4.36,3.79-4.36,7.5l-.2,8c0,8.34,2.28,10,6.23,10s10-2.73,14.8-6.65h0c4.72-3.8,7.54-8,7.54-11.35,0-3.76-1.26-6.08-4.1-7.52C161.8,129.15,158.77,128.66,154.12,128.66Z"/><path d="M235.67,233.68c-10.61,0-10.61-10.48-10.61-14.42l.23-8c0-5.37,2.29-9.22,6.8-11.39,3.7-1.79,8.35-2,12-2s8.22.23,11.83,2c4.3,2.21,6.47,6.05,6.47,11.43,0,4.72-3.34,10.1-9.18,14.76S240.57,233.68,235.67,233.68Zm8.41-31.47c-4.71,0-7.82.49-10.09,1.59-3,1.42-4.33,3.8-4.33,7.51l-.22,8c0,8.33,2.28,10,6.23,10s9.93-2.74,14.8-6.65c4.72-3.78,7.54-8,7.54-11.35,0-3.71-1.3-6.1-4.08-7.53C251.77,202.7,248.73,202.21,244.08,202.21Z"/><path d="M250.59,104.49a2.15,2.15,0,0,1-1.09-.29l-13.84-8-2.39,4A2.19,2.19,0,0,1,229.5,98L233,92.13a2.2,2.2,0,0,1,3-.8l15.72,9.08a2.19,2.19,0,0,1-1.1,4.08Z"/><path d="M242.56,118.76a2.17,2.17,0,0,1-1.09-.29l-16-9.28a2.17,2.17,0,0,1-.78-3c.69-1.15,2.88-4.82,4.85-8.17a2.19,2.19,0,0,1,3.77,2.23c-1.31,2.23-2.72,4.6-3.73,6.29l14.12,8.16a2.19,2.19,0,0,1-1.1,4.08Z"/><path d="M232.94,129.45a2.18,2.18,0,0,1-2-1.28,9.32,9.32,0,0,0-1-1.62,1.47,1.47,0,0,1-.21-.36.41.41,0,0,1-.05-.09,4.94,4.94,0,0,0-2-2.31,4.76,4.76,0,0,0-2.77-.56,2.17,2.17,0,0,1-.44,0,9.77,9.77,0,0,0-2.23,0,2.2,2.2,0,0,1-2.33-1.55,11.62,11.62,0,0,1,1-9.18l.66-1.13c1-1.74,2-3.44,3-5.15a2.2,2.2,0,0,1,1.33-1,2.13,2.13,0,0,1,1.67.22l16,9.27a2.18,2.18,0,0,1,.8,3l-1.1,1.94q-1.23,2.18-2.52,4.39a11.52,11.52,0,0,1-4,4,10,10,0,0,1-3.46,1.38A2.28,2.28,0,0,1,232.94,129.45Zm.9-5c0,.07.09.14.14.2a4.88,4.88,0,0,0,.55-.31,7.19,7.19,0,0,0,2.54-2.54c.85-1.45,1.67-2.9,2.49-4.34l0-.05-12.27-7.09c-.62,1.09-1.26,2.17-1.91,3.28l-.65,1.12a6.94,6.94,0,0,0-.91,3.36,6.12,6.12,0,0,0,0,.74c.35,0,.69,0,1,.06A9.08,9.08,0,0,1,230,120a9,9,0,0,1,3.52,3.81A1.38,1.38,0,0,1,233.84,124.42Z"/><path d="M199.13,170a2.41,2.41,0,0,1-.53-.07,2.18,2.18,0,0,1-1.62-1.73,44.88,44.88,0,0,1-.55-12,44.42,44.42,0,0,1,5.7-18c6-10.34,13-17,19.75-18.84l.24,0h0a12.51,12.51,0,0,1,2.56-.41,3.24,3.24,0,0,1,.44,0,12.52,12.52,0,0,1,4.52,1.53,11.86,11.86,0,0,1,3.66,3.29,1.4,1.4,0,0,1,.56,1,10.51,10.51,0,0,1,.58,1.65.31.31,0,0,1,0,.08,1.24,1.24,0,0,1,.06.18c1.79,6.81-.51,16.23-6.47,26.54-2.87,5-7.71,6.35-12.39,7.68-5.21,1.45-10.56,2.94-14.86,8.34A2.18,2.18,0,0,1,199.13,170Zm23.81-46.39c-5.53,1.53-11.73,7.64-17,16.79a39.92,39.92,0,0,0-5.14,16.19,40.51,40.51,0,0,0-.06,6.42c4.43-3.78,9.33-5.15,13.76-6.38s7.82-2.23,9.81-5.67c5.28-9.13,7.48-17.56,6-23.17,0-.07,0-.17-.08-.26h0a6.85,6.85,0,0,0-.43-1.17,7.56,7.56,0,0,0-2.37-2.13,7.79,7.79,0,0,0-2.74-1,9.08,9.08,0,0,0-1.54.28l-.21,0Z"/><path d="M231.72,127.38a2.17,2.17,0,0,1-1.79-.94,7.57,7.57,0,0,0-2.46-2.25,8,8,0,0,0-2.94-1,2.19,2.19,0,0,1,.17-4.35A9.05,9.05,0,0,1,230,120a9.22,9.22,0,0,1,3.74,4.26,2.19,2.19,0,0,1-.9,2.81A2.25,2.25,0,0,1,231.72,127.38Z"/><path d="M194,257.81c-10.61,0-10.61-10.47-10.61-14.42l.2-8c0-5.37,2.29-9.22,6.82-11.4,3.63-1.76,8.11-2,12-2s8.33.25,11.82,2.06c4.28,2.14,6.47,6,6.47,11.38,0,4.69-3.34,10.07-9.16,14.76S199,257.81,194,257.81Zm8.42-31.43c-3.21,0-7.25.18-10.1,1.56s-4.36,3.81-4.36,7.5l-.19,8c0,8.33,2.28,10,6.23,10s9.94-2.74,14.8-6.65,7.54-8,7.54-11.35c0-3.76-1.26-6.07-4.09-7.48S205.81,226.38,202.46,226.38Z"/><path d="M145.7,160.13c-10.6,0-10.6-10.48-10.6-14.42l.19-8c0-5.31,2.3-9.16,6.82-11.37,3.71-1.81,8.37-2,12-2s8.23.24,11.8,2c4.32,2.19,6.5,6,6.5,11.42,0,4.69-3.34,10.07-9.17,14.76S150.66,160.13,145.7,160.13Zm8.42-31.47c-4.71,0-7.83.49-10.09,1.59-3,1.47-4.36,3.79-4.36,7.5l-.2,8c0,8.34,2.28,10,6.23,10s10-2.73,14.8-6.65,7.54-8,7.54-11.35c0-3.76-1.26-6.08-4.1-7.52C161.8,129.15,158.77,128.66,154.12,128.66Z"/><path d="M145.14,248.15c-10.6,0-10.6-10.48-10.6-14.42l.23-8c0-5.34,2.28-9.18,6.79-11.35,3.71-1.79,8.36-2,12-2s8.21.23,11.83,2c4.3,2.17,6.47,6,6.47,11.39,0,4.71-3.34,10.1-9.17,14.79S150.07,248.15,145.14,248.15Zm8.42-31.43c-4.71,0-7.82.49-10.1,1.58-3,1.44-4.32,3.74-4.32,7.47l-.23,8c0,8.33,2.29,10,6.23,10s10-2.73,14.81-6.62,7.53-8.06,7.53-11.39c0-3.76-1.25-6.06-4.06-7.48C161.25,217.2,158.21,216.72,153.56,216.72Z"/><path d="M127.65,202.9C117,202.9,117,192.4,117,188.45l.23-8c0-5.35,2.29-9.19,6.8-11.35,3.63-1.76,8.1-2,12-2s8.31.24,11.84,2c4.28,2.17,6.45,6,6.45,11.36,0,4.75-3.34,10.14-9.17,14.79S132.57,202.9,127.65,202.9Zm8.42-31.43c-3.2,0-7.24.18-10.1,1.56s-4.32,3.74-4.32,7.47l-.23,8c0,8.36,2.28,10,6.23,10s9.95-2.74,14.8-6.65,7.54-8,7.54-11.38c0-3.74-1.25-6-4.06-7.46S139.42,171.47,136.07,171.47Z"/><path d="M127.65,202.9C117,202.9,117,192.4,117,188.45l.23-8c0-5.35,2.29-9.19,6.8-11.35,3.63-1.76,8.1-2,12-2s8.31.24,11.84,2c4.28,2.17,6.45,6,6.45,11.36,0,4.75-3.34,10.14-9.17,14.79S132.57,202.9,127.65,202.9Zm8.42-31.43c-3.2,0-7.24.18-10.1,1.56s-4.32,3.74-4.32,7.47l-.23,8c0,8.36,2.28,10,6.23,10s9.95-2.74,14.8-6.65,7.54-8,7.54-11.38c0-3.74-1.25-6-4.06-7.46S139.42,171.47,136.07,171.47Z"/><path d="M145.7,160.13c-10.6,0-10.6-10.48-10.6-14.42l.19-8c0-5.31,2.3-9.16,6.82-11.37,3.71-1.81,8.37-2,12-2s8.23.24,11.8,2h0c4.31,2.19,6.49,6,6.49,11.42,0,4.69-3.34,10.07-9.17,14.76S150.66,160.13,145.7,160.13Zm8.42-31.47c-4.71,0-7.83.49-10.09,1.59-3,1.47-4.36,3.79-4.36,7.5l-.2,8c0,8.34,2.28,10,6.23,10s10-2.73,14.8-6.65,7.54-8,7.54-11.35c0-3.75-1.26-6.07-4.09-7.52h0C161.8,129.15,158.77,128.66,154.12,128.66Z"/><path d="M145.14,248.15c-10.6,0-10.6-10.48-10.6-14.42l.23-8c0-5.34,2.28-9.18,6.79-11.35,3.71-1.79,8.36-2,12-2s8.21.23,11.83,2c4.3,2.17,6.47,6,6.47,11.39,0,4.71-3.34,10.1-9.17,14.79S150.07,248.15,145.14,248.15Zm8.42-31.43c-4.71,0-7.82.49-10.1,1.58-3,1.44-4.32,3.74-4.32,7.47l-.23,8c0,8.33,2.29,10,6.23,10s10-2.73,14.81-6.62,7.53-8.06,7.53-11.39c0-3.76-1.25-6.06-4.06-7.48C161.25,217.2,158.21,216.72,153.56,216.72Z"/><path d="M194,257.81c-10.61,0-10.61-10.47-10.61-14.42l.2-8c0-5.37,2.29-9.22,6.82-11.4,3.63-1.76,8.11-2,12-2s8.33.25,11.82,2.06c4.28,2.14,6.47,6,6.47,11.38,0,4.69-3.34,10.07-9.16,14.76S199,257.81,194,257.81Zm8.42-31.43c-3.21,0-7.25.18-10.1,1.56s-4.36,3.81-4.36,7.5l-.19,8c0,8.33,2.28,10,6.23,10s9.94-2.74,14.8-6.65,7.54-8,7.54-11.35c0-3.76-1.26-6.07-4.09-7.48S205.81,226.38,202.46,226.38Z"/><path d="M235.67,233.68c-10.61,0-10.61-10.48-10.61-14.42l.23-8c0-5.37,2.29-9.22,6.8-11.39,3.7-1.79,8.35-2,12-2s8.22.23,11.83,2c4.3,2.21,6.47,6.05,6.47,11.43,0,4.72-3.34,10.1-9.18,14.76S240.57,233.68,235.67,233.68Zm8.41-31.47c-4.71,0-7.82.49-10.09,1.59-3,1.42-4.33,3.8-4.33,7.51l-.22,8c0,8.33,2.28,10,6.23,10s9.93-2.74,14.8-6.65c4.72-3.78,7.54-8,7.54-11.35,0-3.71-1.3-6.1-4.08-7.53C251.77,202.7,248.73,202.21,244.08,202.21Z"/><path d="M173.7,290.4c-20.63,0-32.47-12.32-44.95-25.31-5.81-6.08-11.6-12.12-18.3-17.22-12.88-10.2-19.66-18.39-22.72-27.42s-2.47-19.52,2-34.85c3.54-12.1,3.8-21.4,4-29.6.4-15.69.71-28.09,26.25-48.92,11.61-9.43,27.38-22.23,42.25-19.59L165,88c4.3,1,7.3,1.9,9.95,2.69a75.51,75.51,0,0,0,19.46,3.56c2.92.21,6.17.29,9.58.38l3,.08a171,171,0,0,1,24.48,2.2,2.19,2.19,0,0,1,1.78,2.53,2.21,2.21,0,0,1-2.53,1.79,165.76,165.76,0,0,0-23.84-2.15l-3-.08c-3.48-.09-6.79-.17-9.78-.38a79.48,79.48,0,0,1-20.2-3.68c-2.8-.83-5.73-1.71-9.78-2.66l-2.67-.46c-12.94-2.29-28.39,10.28-38.62,18.59C98.76,130,98.49,141,98.11,156.12c-.24,8.47-.5,18.06-4.2,30.71-4.18,14.4-4.79,24-2,32.23s9.12,15.74,21.25,25.35c6.94,5.29,12.85,11.46,18.57,17.43,13.29,13.83,24.61,25.61,45.54,24.06,7.47-1,18.46-5,26.49-7.92l1.56-.61c9.55-3.49,18.36-4.05,26.88-4.59,7.67-.46,15.6-.93,22.57-4.14,6.39-3.5,11.54-9.34,15.61-17.78,3.83-8,6.16-17.16,8-25.07l1.62-6.65c5.45-22.36,6.74-27.67-5.27-50.66a3.34,3.34,0,0,1-.17-.38c-5.68-11.11-8-21-10.11-29.78-1.85-7.52-3.52-14.35-6.7-21.22a24.38,24.38,0,0,0-3.8-5.86c-.9-1-4.65-4.35-5.82-5.3a2.19,2.19,0,1,1,2.75-3.4c1.15.93,5.18,4.49,6.35,5.81a29.05,29.05,0,0,1,4.49,6.9c3.36,7.27,5.08,14.29,6.9,21.72l.08.34c2,8.51,4.31,18.16,9.82,28.94l.16.36c12.71,24.3,11.05,31.08,5.57,53.57l-1.61,6.63c-1.93,8.12-4.32,17.5-8.34,25.95-4.49,9.29-10.25,15.76-17.6,19.78-7.85,3.63-16.19,4.13-24.26,4.61s-16.7,1.06-25.58,4.31l-1.64.63c-8.21,3-19.46,7-27.52,8.16C176.33,290.35,175,290.4,173.7,290.4Z"/><path d="M199.13,170a2.41,2.41,0,0,1-.53-.07,2.18,2.18,0,0,1-1.62-1.73,44.88,44.88,0,0,1-.55-12,44.42,44.42,0,0,1,5.7-18c6-10.34,13-17,19.75-18.84l.24,0h0a12.51,12.51,0,0,1,2.56-.41A2.24,2.24,0,0,1,227,121a2.19,2.19,0,0,1-2.09,2.28,8.67,8.67,0,0,0-1.72.29l-.21,0h0c-5.53,1.53-11.73,7.64-17,16.79a39.92,39.92,0,0,0-5.14,16.19,40.51,40.51,0,0,0-.06,6.42c4.43-3.78,9.33-5.15,13.76-6.38s7.82-2.23,9.81-5.67c5.3-9.17,7.5-17.64,6-23.24a1.4,1.4,0,0,1-.09-.29,5.42,5.42,0,0,0-.42-1.11,2.19,2.19,0,1,1,3.86-2,9.72,9.72,0,0,1,.8,2.08.31.31,0,0,1,0,.08,1.24,1.24,0,0,1,.06.18c1.79,6.81-.51,16.23-6.47,26.54-2.87,5-7.71,6.35-12.39,7.68-5.21,1.45-10.56,2.94-14.86,8.34A2.18,2.18,0,0,1,199.13,170Z"/><path d="M232.94,129.45a2.18,2.18,0,0,1-2-1.28,9.32,9.32,0,0,0-1-1.62,1.64,1.64,0,0,1-.14-.22,7.62,7.62,0,0,0-2.38-2.14,8,8,0,0,0-2.94-1,10.22,10.22,0,0,0-2.21,0,2.2,2.2,0,0,1-2.33-1.55,11.62,11.62,0,0,1,1-9.18l.66-1.13c1-1.74,2-3.44,3-5.15a2.21,2.21,0,0,1,3-.81,2.18,2.18,0,0,1,.81,3c-1,1.72-2,3.44-3,5.19l-.65,1.12a6.94,6.94,0,0,0-.91,3.36,6.12,6.12,0,0,0,0,.74c.42,0,.82,0,1.21.08a12.6,12.6,0,0,1,4.61,1.54,11.86,11.86,0,0,1,3.66,3.29,1.32,1.32,0,0,1,.5.72c0,.07.09.14.14.2a4.88,4.88,0,0,0,.55-.31,7.19,7.19,0,0,0,2.54-2.54c.85-1.45,1.67-2.9,2.49-4.34l1.11-2a2.19,2.19,0,1,1,3.79,2.18l-1.1,1.94q-1.23,2.18-2.52,4.39a11.52,11.52,0,0,1-4,4,10,10,0,0,1-3.46,1.38A2.28,2.28,0,0,1,232.94,129.45Z"/><path d="M242.57,118.76a2.23,2.23,0,0,1-1.1-.29l-16-9.28a2.17,2.17,0,0,1-.78-3c.69-1.15,2.88-4.82,4.85-8.17L233,92.13a2.19,2.19,0,1,1,3.79,2.2l-3.5,5.9c-1.31,2.23-2.72,4.6-3.73,6.29l12.2,7,5.86-10.4c.53-1,.88-1.59,1.1-2a2.19,2.19,0,0,1,3.78,2.21c-.22.37-.54,1-1,1.75l-7,12.48a2.2,2.2,0,0,1-1.33,1A1.93,1.93,0,0,1,242.57,118.76Z"/><path d="M250.59,104.49a2.2,2.2,0,0,1-1.09-.29l-15.72-9.08a2.14,2.14,0,0,1-1-1.35A2.17,2.17,0,0,1,233,92.1c18.51-30.61,34.13-52.94,44-62.86,4.94-5,6.37-5.89,8.05-5,1.81,1.18,1.75,3-.12,9.65-3.63,13.49-15.14,38.19-32.41,69.52a2.22,2.22,0,0,1-1.33,1A2,2,0,0,1,250.59,104.49Zm-12.68-12,11.84,6.84c16.51-30.1,27.48-53.71,30.95-66.61l.36-1.32c-.29.29-.62.61-1,1C270.68,41.8,255.73,63.11,237.91,92.45Z"/></g></svg>