<svg xmlns="http://www.w3.org/2000/svg" viewBox="0 0 355.14 355.14"><defs><style>.cls-1{fill:#ffde9a;}.cls-2{fill:#ff7400;}.cls-3{fill:#0096c8;}</style></defs><g id="Layer_1" data-name="Layer 1"><path class="cls-1" d="M194.6,173.51,62.3,42.55V302.39H323.1ZM106,147.11,217.31,258.48H106Z"/><path class="cls-2" d="M134.59,230.09s-12.25-50.49-10-79.33c-.26-29.64-1.1-43.24-1.1-43.24l4.7-6.8s10.37,2.48,13,.43L145,106l-.6,46.49S141.18,221.3,134.59,230.09Z"/><path class="cls-2" d="M178.93,238.69c.3-.2-12.7-40.69-12-40.89s4.1-3.6,4.5-3.3,3,5.7,3.9,5.2,5.2-5.22,5.2-5.22l2.6,3.62,5.3-2.9,3.7,3.5Z"/><polygon class="cls-3" points="166.53 62.53 192.49 62.53 191.92 198.7 187.72 194.48 184.22 199.1 178.62 194.48 175.22 199.1 172.16 194.48 166.72 197.8 166.53 62.53"/><path class="cls-2" d="M191.63,62.53h-24.4V50.43s.8-7.8,8.3-7.1,11.4-.58,13.4,1.76S192.93,55.13,191.63,62.53Z"/><path class="cls-3" d="M131.14,41.33c.4.5,7.9,16.8,13.3,21.2s7.16,18,2.78,27.59-9.52,17-13.78,13.9-10.67-8.6-11.79-15.3-4-27.79-.61-32.29S131.14,41.33,131.14,41.33Z"/><path d="M323.33,304.24H62.3a2.19,2.19,0,0,1-2.19-2.18V41a2.2,2.2,0,0,1,1.36-2,2.17,2.17,0,0,1,2.38.48l63,63a2.19,2.19,0,1,1-3.1,3.09L64.49,46.3V299.87H318L191.26,173.08a2.19,2.19,0,0,1,3.1-3.09L324.87,300.51a2.18,2.18,0,0,1-1.54,3.73Z"/><path d="M218.75,260.93H105.62a2.19,2.19,0,0,1-2.19-2.19V145.62a2.17,2.17,0,0,1,1.35-2,2.19,2.19,0,0,1,2.39.47l18.65,18.66a2.19,2.19,0,0,1-3.1,3.09L107.81,150.9V256.56H213.47L184,227.05a2.19,2.19,0,1,1,3.1-3.09l33.19,33.24a2.18,2.18,0,0,1-1.54,3.73Zm-48.56-48.68a2.19,2.19,0,0,1-1.56-.64l-27.18-27.33a2.18,2.18,0,1,1,3.1-3.08l27.19,27.32a2.18,2.18,0,0,1-1.55,3.73Z"/><path d="M134.62,105.52h0a11.67,11.67,0,0,1-8-3.73c-5.8-5.83-8.91-16.51-8.91-30.22a50,50,0,0,1,4.64-21.2,50.84,50.84,0,0,1,7.44-11.64,2.19,2.19,0,0,1,3.83,1.1c1.21,8,5.75,12.65,10.15,17.15,3.91,4,7.9,8.13,7.9,14.59,0,13.72-3.12,24.42-8.82,30.11C140.16,104.27,137.41,105.52,134.62,105.52Zm-5.17-7,.09.09a7.67,7.67,0,0,0,5.1,2.55,7.27,7.27,0,0,0,4.88-2.37c5-5,7.71-14.84,7.7-27.2,0-4.7-3.06-7.85-6.6-11.49-3.87-4-8.13-8.31-10.3-15A45.91,45.91,0,0,0,122,71.57C122,83.9,124.72,93.71,129.45,98.51Z"/><path d="M145.32,118.79H123.86a2.19,2.19,0,0,1-2.19-2.17c0-2.76,0-5.58,0-8.44a12.58,12.58,0,0,1,1.64-6.24,13,13,0,0,1,2.59-3.28,2.18,2.18,0,0,1,2.77-.15,10.25,10.25,0,0,0,6,2.08,10.1,10.1,0,0,0,5.92-2.09,2.19,2.19,0,0,1,2.77.16,13.16,13.16,0,0,1,2.6,3.31,12.6,12.6,0,0,1,1.61,6.21c0,2.86,0,5.68,0,8.44A2.18,2.18,0,0,1,145.32,118.79ZM126,114.42h17.1v-6.24a8.29,8.29,0,0,0-1-4.08,8.39,8.39,0,0,0-.64-1,14,14,0,0,1-6.86,1.86,14.43,14.43,0,0,1-6.86-1.86,9.08,9.08,0,0,0-.63,1,8.27,8.27,0,0,0-1.07,4.09C126,110.28,126,112.37,126,114.42Z"/><path d="M145.08,137.73h-21a2.19,2.19,0,0,1-2.19-2.15c0-2.61-.22-16.25-.24-19a2.24,2.24,0,0,1,.64-1.56,2.2,2.2,0,0,1,1.55-.64h21.46a2.19,2.19,0,0,1,2.18,2.21l-.24,18.94A2.19,2.19,0,0,1,145.08,137.73Zm-18.83-4.38h16.67l.18-14.56h-17C126.11,122.61,126.2,129.58,126.25,133.35Z"/><path d="M134.57,233.43h-.14c-1.83-.12-2.69-1.37-4.82-9.46-4.15-15.65-6.88-47-7.7-88.39a2.2,2.2,0,0,1,2.19-2.23h21a2.19,2.19,0,0,1,2.18,2.23c-.81,41.29-3.55,72.68-7.7,88.39C137.51,231.75,136.62,233.43,134.57,233.43Zm-8.23-95.7c.86,39.9,3.52,70.08,7.5,85.12.28,1.05.53,1.94.74,2.7.22-.76.47-1.65.75-2.7,4-15.1,6.65-45.28,7.51-85.12Z"/><path d="M179.52,240.86a2.18,2.18,0,0,1-2.08-1.51l-12.91-39.5a2.25,2.25,0,0,1-.11-.68V62.84a2.19,2.19,0,0,1,2.19-2.19h25.8a2.19,2.19,0,0,1,2.19,2.19V199.17a2.25,2.25,0,0,1-.11.68l-12.89,39.5A2.2,2.2,0,0,1,179.52,240.86Zm-10.72-42,10.72,32.81,10.7-32.81V65H168.8Z"/><path d="M192.7,201.43a2.17,2.17,0,0,1-1.44-.55L188,198l-2,2.53a2.2,2.2,0,0,1-1.63.85,2.1,2.1,0,0,1-1.7-.7l-3.25-3.48-2.17,3.21a2.18,2.18,0,0,1-1.81,1h0a2.19,2.19,0,0,1-1.82-1l-2.16-3.22-3.26,3.49a2.19,2.19,0,0,1-3.2-3l5.14-5.5a2.16,2.16,0,0,1,1.77-.69,2.19,2.19,0,0,1,1.64,1l1.89,2.81,1.89-2.81a2.19,2.19,0,0,1,3.42-.27l3.37,3.62,1.8-2.34a2.2,2.2,0,0,1,1.53-.83,2.16,2.16,0,0,1,1.65.53l5,4.44a2.19,2.19,0,0,1-1.45,3.83Z"/><path d="M192.41,65h-25.8a2.19,2.19,0,0,1-2.19-2.19v-10a12.17,12.17,0,0,1,12.16-12.15h5.88A12.16,12.16,0,0,1,194.6,52.87v10A2.19,2.19,0,0,1,192.41,65ZM168.8,60.65h21.42V52.87a7.78,7.78,0,0,0-7.76-7.78h-5.88a7.79,7.79,0,0,0-7.78,7.78Z"/><path d="M84.22,97.92H62.3a2.19,2.19,0,1,1,0-4.37H84.22a2.19,2.19,0,0,1,0,4.37Z"/><path d="M76.45,114.32H62.3a2.19,2.19,0,1,1,0-4.37H76.45a2.19,2.19,0,1,1,0,4.37Z"/><path d="M84.22,130.72H62.3a2.19,2.19,0,1,1,0-4.38H84.22a2.19,2.19,0,0,1,0,4.38Z"/><path d="M76.45,147.11H62.3a2.19,2.19,0,1,1,0-4.37H76.45a2.19,2.19,0,1,1,0,4.37Z"/><path d="M84.22,163.51H62.3a2.19,2.19,0,0,1,0-4.38H84.22a2.19,2.19,0,0,1,0,4.38Z"/><path d="M76.45,179.91H62.3a2.19,2.19,0,1,1,0-4.38H76.45a2.19,2.19,0,1,1,0,4.38Z"/><path d="M84.22,196.27H62.3a2.19,2.19,0,1,1,0-4.37H84.22a2.19,2.19,0,0,1,0,4.37Z"/><path d="M76.45,212.66H62.3a2.19,2.19,0,1,1,0-4.37H76.45a2.19,2.19,0,1,1,0,4.37Z"/><path d="M84.22,229.06H62.3a2.19,2.19,0,1,1,0-4.37H84.22a2.19,2.19,0,0,1,0,4.37Z"/><path d="M76.45,245.46H62.3a2.19,2.19,0,1,1,0-4.37H76.45a2.19,2.19,0,1,1,0,4.37Z"/><path d="M84.22,261.86H62.3a2.19,2.19,0,1,1,0-4.37H84.22a2.19,2.19,0,0,1,0,4.37Z"/><path d="M76.45,278.26H62.3a2.19,2.19,0,1,1,0-4.38H76.45a2.19,2.19,0,1,1,0,4.38Z"/><path d="M101.35,302.39a2.19,2.19,0,0,1-2.19-2.19V278.27a2.19,2.19,0,0,1,4.38,0V300.2A2.19,2.19,0,0,1,101.35,302.39Z"/><path d="M117.74,302.39a2.19,2.19,0,0,1-2.19-2.19V286a2.19,2.19,0,0,1,4.38,0V300.2A2.19,2.19,0,0,1,117.74,302.39Z"/><path d="M134.14,302.39A2.19,2.19,0,0,1,132,300.2V278.27a2.19,2.19,0,0,1,4.38,0V300.2A2.19,2.19,0,0,1,134.14,302.39Z"/><path d="M150.54,302.39a2.19,2.19,0,0,1-2.19-2.19V286a2.19,2.19,0,1,1,4.37,0V300.2A2.19,2.19,0,0,1,150.54,302.39Z"/><path d="M166.92,302.39a2.19,2.19,0,0,1-2.19-2.19V278.27a2.19,2.19,0,0,1,4.38,0V300.2A2.19,2.19,0,0,1,166.92,302.39Z"/><path d="M183.32,302.39a2.19,2.19,0,0,1-2.19-2.19V286a2.19,2.19,0,0,1,4.38,0V300.2A2.19,2.19,0,0,1,183.32,302.39Z"/><path d="M199.71,302.39a2.19,2.19,0,0,1-2.19-2.19V278.27a2.19,2.19,0,0,1,4.38,0V300.2A2.19,2.19,0,0,1,199.71,302.39Z"/><path d="M216.11,302.39a2.19,2.19,0,0,1-2.19-2.19V286a2.19,2.19,0,0,1,4.38,0V300.2A2.19,2.19,0,0,1,216.11,302.39Z"/><path d="M232.51,302.39a2.19,2.19,0,0,1-2.19-2.19V278.27a2.19,2.19,0,0,1,4.38,0V300.2A2.19,2.19,0,0,1,232.51,302.39Z"/><path d="M248.9,302.39a2.19,2.19,0,0,1-2.19-2.19V286a2.19,2.19,0,0,1,4.38,0V300.2A2.19,2.19,0,0,1,248.9,302.39Z"/><path d="M265.29,302.39a2.19,2.19,0,0,1-2.19-2.19V278.27a2.19,2.19,0,1,1,4.38,0V300.2A2.19,2.19,0,0,1,265.29,302.39Z"/><path d="M281.68,302.39a2.19,2.19,0,0,1-2.19-2.19V286a2.19,2.19,0,0,1,4.38,0V300.2A2.19,2.19,0,0,1,281.68,302.39Z"/><rect x="153.16" y="120.42" width="5.05" height="30.17" transform="translate(-50.22 149.77) rotate(-45)"/></g></svg>