<svg xmlns="http://www.w3.org/2000/svg" viewBox="0 0 355.14 355.14"><defs><style>.cls-1{fill:#ff7400;}.cls-2{fill:#ffde9a;}.cls-3{fill:#0096c8;}</style></defs><g id="Layer_1" data-name="Layer 1"><path class="cls-1" d="M115.77,163.88H264.23a0,0,0,0,1,0,0v106a30.72,30.72,0,0,1-30.72,30.72H141.37A25.61,25.61,0,0,1,115.77,275V163.88A0,0,0,0,1,115.77,163.88Z"/><rect class="cls-2" x="101.15" y="126.69" width="177.56" height="37.19"/><rect class="cls-2" x="115.25" y="209.47" width="79.78" height="38.39"/><rect class="cls-3" x="167.04" y="54.1" width="36.79" height="72.18"/><path class="cls-3" d="M219.33,74.35s4.95,4.05,5.55,3.75,5.55-3.75,5.55-3.75l6.74,3.76,3.15-3.76,5.7,3.76L251.87,75l.75,52.19H219.33Z"/><path class="cls-3" d="M130.2,126.74h17.59L148.24,98,145.19,92s-10.19,1.54-11.74.52c-2.8,4.63-3.25,4.41-3.25,4.41Z"/><path class="cls-1" d="M143.52,44.5S160,70.9,146.75,90.69c-6.91,4.46-6.16,4.58-8.63,4s-12-13.87-10.65-23,5.78-13.27,9.45-16.79S143.52,44.5,143.52,44.5Z"/><path class="cls-2" d="M235.7,40c.9,1.35,16.92,33.8,16.92,33.8l-6.35,4.35L241,74.35l-4.4,3.75L228.68,74s-4.05,3-4.25,3-5.65-4.45-5.65-4.45Z"/><path d="M230.54,303.47H143.05a30.08,30.08,0,0,1-30-30V164.21A2.19,2.19,0,0,1,115.2,162H264.52a2.19,2.19,0,0,1,2.19,2.19v103.1A36.21,36.21,0,0,1,230.54,303.47ZM117.39,166.4v107a25.69,25.69,0,0,0,25.66,25.66h87.49a31.83,31.83,0,0,0,31.8-31.78V166.4Z"/><path d="M195.44,249.43H115.2a2.19,2.19,0,0,1-2.19-2.19V210.46a2.19,2.19,0,0,1,2.19-2.19h80.24a2.19,2.19,0,0,1,2.19,2.19v36.78A2.19,2.19,0,0,1,195.44,249.43Zm-78-4.38h75.86v-32.4H117.39Z"/><path d="M278.46,166.4H101.27a2.19,2.19,0,0,1-2.19-2.19V127.45a2.19,2.19,0,0,1,2.19-2.19H278.46a2.18,2.18,0,0,1,2.18,2.19v36.76A2.18,2.18,0,0,1,278.46,166.4Zm-175-4.38H276.27V129.64H103.46Z"/><path d="M224.4,142.52H101.27a2.19,2.19,0,1,1,0-4.37H224.4a2.19,2.19,0,1,1,0,4.37Z"/><path d="M252.45,129.64H219a2.19,2.19,0,0,1-2.19-2.19V73.61a2.14,2.14,0,0,1,.22-1l16.72-34.42a2.2,2.2,0,0,1,2-1.23h0a2.2,2.2,0,0,1,2,1.23l16.71,34.42a2.29,2.29,0,0,1,.22,1v53.84A2.19,2.19,0,0,1,252.45,129.64Zm-31.25-4.38h29.06V74.11L235.74,44.2,221.2,74.11Z"/><path d="M236.21,80.58a2.24,2.24,0,0,1-1.28-.41l-5.24-3.78-3.11,2.68a2.15,2.15,0,0,1-2.55.23l-6.51-3.9a2.18,2.18,0,1,1,2.24-3.75l5.16,3.08L228.13,72a2.19,2.19,0,0,1,2.71-.12l5.14,3.7L239.46,72a2.24,2.24,0,0,1,3.1,0l3.49,3.49,5.12-3.7a2.19,2.19,0,0,1,2.56,3.55l-6.63,4.79a2.2,2.2,0,0,1-2.83-.23L241,76.68l-3.25,3.26A2.2,2.2,0,0,1,236.21,80.58Z"/><path d="M203.87,129.64H166a2.19,2.19,0,0,1-2.18-2.19V54.38A2.19,2.19,0,0,1,166,52.19h37.89a2.19,2.19,0,0,1,2.19,2.19v73.07A2.19,2.19,0,0,1,203.87,129.64Zm-35.7-4.38h33.51V56.57H168.17Z"/><path d="M183,71.35H166A2.19,2.19,0,0,1,166,67h17a2.19,2.19,0,0,1,0,4.38Z"/><path d="M183,84.84H166a2.19,2.19,0,0,1,0-4.38h17a2.19,2.19,0,0,1,0,4.38Z"/><path d="M183,98H166a2.19,2.19,0,0,1,0-4.38h17A2.19,2.19,0,0,1,183,98Z"/><path d="M139.36,97a9.69,9.69,0,0,1-6.68-3l-.25-.22c-4.69-4.72-7.27-13.52-7.27-24.78,0-5.49,3.47-9,6.54-12.16,3.52-3.61,7.17-7.34,8.13-13.71A2.19,2.19,0,0,1,143.66,42,41.26,41.26,0,0,1,153.58,69c0,11.26-2.57,20-7.23,24.74a1.06,1.06,0,0,1-.15.15A9.78,9.78,0,0,1,139.36,97Zm-3.89-6.35a1.12,1.12,0,0,1,.2.18c2.45,2.38,5,2.34,7.46-.07l.09-.09.07-.06c3.76-3.84,5.91-11.71,5.91-21.62a36.94,36.94,0,0,0-3.39-15.56,35.4,35.4,0,0,0-2.82-5c-1.86,5.06-5.17,8.44-8.16,11.51-2.85,2.9-5.3,5.4-5.3,9.1C129.53,78.89,131.7,86.77,135.47,90.62Z"/><path d="M148.11,107.77H130.67a2.19,2.19,0,0,1-2.19-2.19V98.73a11,11,0,0,1,1.35-5.23A11.44,11.44,0,0,1,132,90.68a2.2,2.2,0,0,1,2.77-.13,7.39,7.39,0,0,0,9.16,0,2.19,2.19,0,0,1,2.78.14,11.4,11.4,0,0,1,2.18,2.75,10.92,10.92,0,0,1,1.39,5.29l0,6.85A2.19,2.19,0,0,1,148.11,107.77Zm-15.26-4.38h13.08V98.73a6.48,6.48,0,0,0-.82-3.14c-.08-.15-.17-.29-.27-.44a11.64,11.64,0,0,1-10.91,0c-.1.16-.2.31-.29.47a6.47,6.47,0,0,0-.81,3.11Z"/><path d="M147.93,129.64h0l-17,0a2.19,2.19,0,0,1-2.19-2.16c0-1.09-.06-6.29-.1-11.37l-.1-10.47a2.24,2.24,0,0,1,.64-1.57,2.2,2.2,0,0,1,1.55-.65h17.44a2.21,2.21,0,0,1,1.56.65,2.18,2.18,0,0,1,.63,1.56l-.07,8.72c0,5.58-.1,11.92-.12,13.16A2.18,2.18,0,0,1,147.93,129.64ZM133,125.24l12.72,0c0-2.62.06-7,.09-11l.06-6.52h-13L133,116C133,119.5,133,123,133,125.24Z"/><path d="M183,111H166a2.19,2.19,0,0,1,0-4.37h17a2.19,2.19,0,1,1,0,4.37Z"/></g></svg>