<svg xmlns="http://www.w3.org/2000/svg" viewBox="0 0 355.14 355.14"><defs><style>.cls-1{fill:#ffde9a;}.cls-2{fill:#ff7400;}.cls-3{fill:#0096c8;}</style></defs><g id="Layer_1" data-name="Layer 1"><rect class="cls-1" x="71.23" y="51.37" width="72.54" height="257.38"/><path class="cls-2" d="M187.69,175.29l29,1s-2.8,108.58-14.5,129.78C192.75,282.19,187.69,175.29,187.69,175.29Z"/><polygon class="cls-3" points="215.58 175.29 187.69 175.29 187.69 135.05 192.34 128.45 199.98 132.5 211.53 127.55 216.68 136.05 215.58 175.29"/><path class="cls-2" d="M196.53,47.77s5.7,13.95,12.45,19.95,16.05,8.62,13.2,30-8.7,29-12.56,30.66-16.31,4.81-20.17-2.5-10.31-30-8.36-40.61,5.1-24,9.3-28.64A39.92,39.92,0,0,0,196.53,47.77Z"/><polygon class="cls-3" points="262.67 77.34 312.76 77.34 312.76 252.37 303.69 248.43 297.24 252.37 287.19 247.38 278.87 253.15 272.27 247.23 262.67 253.15 262.67 77.34"/><path class="cls-3" d="M281.07,290h13.84s-7.09,14.7-6.92,14.5S281.07,290,281.07,290Z"/><polygon class="cls-1" points="311.66 254.28 294.36 289.47 280.57 290.02 263.37 254.28 271.3 248.52 278.87 253.15 287.51 246.78 296.36 253.68 302.32 248.48 311.66 254.28"/><path class="cls-2" d="M312.76,77.34l-49.34-.63V61s.15-7.95,10.5-9,27.59,0,27.59,0,10.35.75,10.65,12.15S312.76,77.34,312.76,77.34Z"/><path d="M143.77,308.75H73.42a2.19,2.19,0,0,1-2.19-2.19V51.37a2.19,2.19,0,0,1,2.19-2.19h70.35A2.19,2.19,0,0,1,146,51.37V306.56A2.19,2.19,0,0,1,143.77,308.75Zm-68.16-4.38h66V53.56h-66Z"/><path d="M111.35,77.34H73.42a2.19,2.19,0,1,1,0-4.38h37.93a2.19,2.19,0,0,1,0,4.38Z"/><path d="M96.72,98.36H73.42a2.19,2.19,0,0,1,0-4.38h23.3a2.19,2.19,0,0,1,0,4.38Z"/><path d="M111.35,119.41H73.42a2.19,2.19,0,1,1,0-4.38h37.93a2.19,2.19,0,0,1,0,4.38Z"/><path d="M96.72,140.43H73.42a2.19,2.19,0,0,1,0-4.38h23.3a2.19,2.19,0,0,1,0,4.38Z"/><path d="M111.35,161.48H73.42a2.19,2.19,0,1,1,0-4.37h37.93a2.19,2.19,0,0,1,0,4.37Z"/><path d="M96.72,182.5H73.42a2.19,2.19,0,1,1,0-4.37h23.3a2.19,2.19,0,1,1,0,4.37Z"/><path d="M111.35,203.56H73.42a2.19,2.19,0,0,1,0-4.38h37.93a2.19,2.19,0,0,1,0,4.38Z"/><path d="M96.72,224.58H73.42a2.19,2.19,0,1,1,0-4.38h23.3a2.19,2.19,0,1,1,0,4.38Z"/><path d="M111.35,245.63H73.42a2.19,2.19,0,0,1,0-4.38h37.93a2.19,2.19,0,0,1,0,4.38Z"/><path d="M96.72,266.65H73.42a2.19,2.19,0,1,1,0-4.37h23.3a2.19,2.19,0,1,1,0,4.37Z"/><path d="M111.35,287.7H73.42a2.19,2.19,0,1,1,0-4.37h37.93a2.19,2.19,0,0,1,0,4.37Z"/><path d="M202,134.43c-3.66,0-7.28-1.68-10.48-4.85a.92.92,0,0,1-.26-.22c-7.57-7.66-11.75-22.11-11.75-40.68A68.05,68.05,0,0,1,185.79,60a68.87,68.87,0,0,1,10.1-15.77,2.19,2.19,0,0,1,3.83,1.09c1.71,11.24,8,17.7,14.14,23.94,5.22,5.36,10.62,10.89,10.62,19.46,0,18.64-4.21,33.11-11.85,40.75-.08.11-.21.22-.3.32C209.17,132.81,205.6,134.43,202,134.43Zm-7.68-8.2.31.28c4.59,4.54,9.87,4.65,14.54.2a3.6,3.6,0,0,1,.48-.48c6.6-6.61,10.45-20.33,10.45-37.55,0-6.79-4.34-11.24-9.37-16.4-5.47-5.59-11.57-11.83-14.34-21.69a63.8,63.8,0,0,0-12.5,38.09C183.89,105.8,187.69,119.47,194.32,126.23Z"/><path d="M187.24,152.66a2.19,2.19,0,0,1-2.19-2.18l0-11.56a16.75,16.75,0,0,1,2.11-8.17,17.63,17.63,0,0,1,3.4-4.3,2.19,2.19,0,0,1,2.77-.16,14,14,0,0,0,17.28,0,2.17,2.17,0,0,1,2.79.16,18.19,18.19,0,0,1,3.38,4.29,16.94,16.94,0,0,1,2.11,8.14q0,5.88,0,11.57a2.19,2.19,0,0,1-2.18,2.18l-29.43,0Zm5.1-21.77a13.13,13.13,0,0,0-1.38,2,12.41,12.41,0,0,0-1.56,6l0,9.37,25.06,0c0-3.07,0-6.2,0-9.36a12.49,12.49,0,0,0-1.55-6,13.73,13.73,0,0,0-1.37-2A18.34,18.34,0,0,1,192.34,130.89Z"/><path d="M216.34,178.65H187.56a2.2,2.2,0,0,1-2.19-2.16c-.06-3.62-.29-22.28-.32-26a2.27,2.27,0,0,1,.63-1.56,2.2,2.2,0,0,1,1.55-.64l29.43,0h0a2.19,2.19,0,0,1,1.56.65,2.15,2.15,0,0,1,.63,1.56c0,2.55-.14,12.08-.23,19l-.09,7A2.2,2.2,0,0,1,216.34,178.65Zm-26.62-4.38h24.46l.06-4.85c.07-5.58.17-12.84.22-16.78l-25,0C189.5,157.91,189.64,169.08,189.72,174.27Z"/><path d="M201.94,309.88h-.11c-1.89-.1-3-1.3-5.93-12.38-5.67-21.41-9.41-64.38-10.52-121a2.17,2.17,0,0,1,2.18-2.23h28.78a2.17,2.17,0,0,1,2.18,2.23c-1.12,56.61-4.86,99.58-10.54,121C205,308.76,203.9,309.88,201.94,309.88ZM189.8,178.65c1.16,55.17,4.82,96.93,10.33,117.74.75,2.84,1.34,4.86,1.81,6.29.46-1.43,1.06-3.45,1.82-6.3,5.51-20.82,9.18-62.57,10.35-117.73Z"/><path d="M287.66,307.12a2.2,2.2,0,0,1-2-1.23L260.8,254.7a2.29,2.29,0,0,1-.22-1V77a2.19,2.19,0,0,1,2.19-2.19h49.74A2.19,2.19,0,0,1,314.7,77V253.74a2.14,2.14,0,0,1-.22,1l-24.85,51.19A2.2,2.2,0,0,1,287.66,307.12ZM265,253.24l22.7,46.69,22.66-46.69v-174H265Z"/><path d="M287.66,307.12a2.2,2.2,0,0,1-2-1.23l-7.08-14.58a2.16,2.16,0,0,1,0-1.92,2.18,2.18,0,0,1,1.51-1.18,36.44,36.44,0,0,1,15.07,0,2.2,2.2,0,0,1,1.51,3.1l-7.07,14.58a2.2,2.2,0,0,1-2,1.23ZM283.82,292l3.83,7.9,3.83-7.9A31.66,31.66,0,0,0,283.82,292Z"/><path d="M313.07,256a2.17,2.17,0,0,1-1.11-.31l-8.33-5-5.38,4.64a2.2,2.2,0,0,1-2.71.12l-8.36-6-5.83,5.84a2.17,2.17,0,0,1-1.54.64h0a2.18,2.18,0,0,1-1.55-.64l-5.83-5.84-8.38,6a2.19,2.19,0,0,1-2.56-3.55l9.89-7.13a2.2,2.2,0,0,1,2.83.23l5.6,5.6,5.58-5.6a2.19,2.19,0,0,1,2.83-.23L296.7,251l5.26-4.55a2.2,2.2,0,0,1,2.55-.22l9.68,5.76a2.19,2.19,0,0,1-1.12,4.07Z"/><path d="M273.16,249.55a2.19,2.19,0,0,1-2.19-2.19V77a2.19,2.19,0,1,1,4.37,0V247.36A2.18,2.18,0,0,1,273.16,249.55Z"/><path d="M286.74,250.38a2.18,2.18,0,0,1-2.19-2.18L283.8,77a2.19,2.19,0,0,1,2.18-2.2h0A2.18,2.18,0,0,1,288.17,77l.76,171.17a2.2,2.2,0,0,1-2.18,2.2Z"/><path d="M302.32,252.37a2.19,2.19,0,0,1-2.18-2.19V77a2.19,2.19,0,1,1,4.37,0V250.18A2.19,2.19,0,0,1,302.32,252.37Z"/><path d="M312.51,79.21H262.77A2.19,2.19,0,0,1,260.58,77V64.14A15.13,15.13,0,0,1,275.69,49h23.92A15.12,15.12,0,0,1,314.7,64.14V77A2.19,2.19,0,0,1,312.51,79.21ZM265,74.83h45.36V64.14a10.73,10.73,0,0,0-10.71-10.73H275.69A10.74,10.74,0,0,0,265,64.14Z"/></g></svg>