<svg xmlns="http://www.w3.org/2000/svg" viewBox="0 0 355.14 355.14"><defs><style>.cls-1{fill:#0096c8;}.cls-2{fill:#ffde9a;}.cls-3{fill:#ff7400;}</style></defs><g id="Layer_1" data-name="Layer 1"><path class="cls-1" d="M78.22,280.72l13.35,13.49-18.9,6.3S77.55,280,78.22,280.72Z"/><polygon class="cls-1" points="143.35 276.78 301.38 116.35 256.08 70.91 96.22 231.23 110.17 233.63 111.06 246.53 123.81 247.57 126.51 262.27 137.76 263.32 143.35 276.78"/><polygon class="cls-2" points="91.05 293.69 79.19 281.7 96.22 231.23 110.17 233.63 111.06 246.53 122.91 247.5 126.51 262.27 137.21 263.27 141.81 276.78 91.05 293.69"/><path class="cls-3" d="M302,116.45l-45.9-45.54,15.7-14.75a19.68,19.68,0,0,1,17.4,2.9c8.4,6.2,25.49,23.3,25.49,23.3s7.34,11.64,2,19.29S302,116.45,302,116.45Z"/><circle class="cls-3" cx="225.92" cy="303.19" r="8.68"/><path d="M71.74,302.84a2.23,2.23,0,0,1-1.55-.64,2.2,2.2,0,0,1-.52-2.27l23.89-69.05a2,2,0,0,1,.52-.83L254.56,69.57a2.2,2.2,0,0,1,1.55-.64h0a2.2,2.2,0,0,1,1.55.64l45.14,45.16a2.2,2.2,0,0,1,0,3.1L142.34,278.28a2.33,2.33,0,0,1-.83.52L72.45,302.72A2.16,2.16,0,0,1,71.74,302.84Zm25.79-70L75.28,297.11l64.32-22.29L298.16,116.28,256.11,74.21Z"/><path d="M71.74,302.84a2.23,2.23,0,0,1-1.55-.64,2.2,2.2,0,0,1-.52-2.27l6.8-19.65a2.2,2.2,0,0,1,1.35-1.35,2.23,2.23,0,0,1,1.9.22,45.1,45.1,0,0,1,7.48,6,43.69,43.69,0,0,1,6,7.5,2.18,2.18,0,0,1-1.13,3.24l-19.65,6.82A2.16,2.16,0,0,1,71.74,302.84Zm7.93-18.41L75.28,297.1,88,292.71a41.93,41.93,0,0,0-3.85-4.46A41.24,41.24,0,0,0,79.67,284.43Z"/><path d="M141.23,279.51a2.19,2.19,0,0,1-2.12-1.65l-3.18-12.49-9.55-.71a2.18,2.18,0,0,1-2-1.83l-2.22-13.57h-11.1a2.19,2.19,0,0,1-2.19-2.19V235.94l-13.6-2.18a2.19,2.19,0,1,1,.69-4.32l15.44,2.48a2.18,2.18,0,0,1,1.85,2.15v10.81H124a2.18,2.18,0,0,1,2.16,1.84l2.25,13.71,9.39.69a2.2,2.2,0,0,1,2,1.64l3.57,14a2.19,2.19,0,0,1-1.58,2.66A2,2,0,0,1,141.23,279.51Z"/><path d="M109.36,235.89a2.2,2.2,0,0,1-1.55-3.74L262.47,77.48a2.19,2.19,0,0,1,3.09,3.1L110.91,235.24A2.19,2.19,0,0,1,109.36,235.89Z"/><path d="M122.41,250.48a2.18,2.18,0,0,1-1.55-3.73L275.59,90.63a2.21,2.21,0,0,1,3.1,0,2.18,2.18,0,0,1,0,3.1L124,249.83A2.19,2.19,0,0,1,122.41,250.48Z"/><path d="M134.77,266.43a2.19,2.19,0,0,1-1.55-3.74L290.45,105.47a2.19,2.19,0,0,1,3.09,3.1L136.31,265.79A2.14,2.14,0,0,1,134.77,266.43Z"/><path d="M301.25,118.47a2.22,2.22,0,0,1-1.55-.64L254.56,72.66a2.19,2.19,0,0,1,0-3.09l11.7-11.71a18.82,18.82,0,0,1,26.53,0l21.73,21.72a18.78,18.78,0,0,1,0,26.54l-11.73,11.71A2.18,2.18,0,0,1,301.25,118.47ZM259.2,71.11l42.05,42.08L311.43,103a14.41,14.41,0,0,0,0-20.35L289.7,61a14.47,14.47,0,0,0-20.35,0Z"/><path d="M257.47,306.19H234.8a2.19,2.19,0,0,1,0-4.38h22.67a2.19,2.19,0,0,1,0,4.38Zm-40.93,0H55.72a2.19,2.19,0,0,1,0-4.38H216.54a2.19,2.19,0,0,1,0,4.38Z"/><path d="M225.66,315.32A11.32,11.32,0,1,1,237,304,11.32,11.32,0,0,1,225.66,315.32Zm0-18.26a6.95,6.95,0,1,0,7,6.94A6.94,6.94,0,0,0,225.66,297.06Z"/></g></svg>