<svg xmlns="http://www.w3.org/2000/svg" viewBox="0 0 355.14 355.14"><defs><style>.cls-1{fill:#0096c8;}.cls-2{fill:#ffde9a;}.cls-3{fill:#ff7400;}</style></defs><g id="Layer_1" data-name="Layer 1"><rect class="cls-1" x="61.56" y="165.35" width="223.75" height="57.53" rx="10.05"/><path class="cls-2" d="M75.86,53.19H273.28a12,12,0,0,1,12,12V189.93a6.26,6.26,0,0,1-6.26,6.26H75.86A16.14,16.14,0,0,1,59.72,180V69.34A16.14,16.14,0,0,1,75.86,53.19Z"/><rect class="cls-1" x="115.3" y="262.88" width="116.83" height="14.25"/><polygon class="cls-3" points="138.25 262.88 208.73 262.88 198.53 223.59 147.69 223.59 138.25 262.88"/><path class="cls-3" d="M169.24,209.74c.06-1.14,1.1-5.89,5.6-4.59s2.95,7.94,1.5,8.59S169,213.39,169.24,209.74Z"/><polygon class="cls-1" points="152.09 155.86 144.9 178.25 166.79 169.85 152.09 155.86"/><path class="cls-3" d="M168.51,169c4.78-1.5,53.27-49.49,53.27-49.49L207.68,104l-54.19,49.79Z"/><path class="cls-1" d="M208.78,103s14.1,16.09,14.6,15.89,8-2.2,5.1-7.2-8.1-14-12.1-13A20.69,20.69,0,0,0,208.78,103Z"/><path class="cls-3" d="M119.6,150.56c1-.8,42-52.15,45.21-52a12.18,12.18,0,0,1,4.55.9l6.08,5.16s-37.24,38.71-50,45.91S119.6,150.56,119.6,150.56Z"/><path class="cls-1" d="M168.84,97.47c.3-.23,7.11-21.52,22.83-23,2.59,2.1,2,8,2,8s-1,13-5.4,16.5-17.47,7.12-18.15,3.45A23,23,0,0,0,168.84,97.47Z"/><path d="M175.4,105.72a1.07,1.07,0,0,1-.18,0h-.06a8.06,8.06,0,0,1-5.54-2.14A7.86,7.86,0,0,1,167.48,98a1.72,1.72,0,0,1,0-.32c0-5,3.28-11,9.17-16.84a30.47,30.47,0,0,1,11.09-7.15,32.2,32.2,0,0,1,8.2-1.79,2.41,2.41,0,0,1,2.34,1.25,2.45,2.45,0,0,1-.16,2.65c-2.56,3.48-2.61,6.89-2.67,10.49,0,3.45-.09,7.22-3.11,10.25C186.39,102.47,180.39,105.72,175.4,105.72Zm-.09-4.94.34,0c1.89-.08,6.52-1.06,13.2-7.73,1.53-1.52,1.63-3.55,1.67-6.72a27.45,27.45,0,0,1,1.15-8.74c-.77.2-1.53.44-2.28.71a25.77,25.77,0,0,0-9.29,6c-6.77,6.78-7.68,11.43-7.73,13.25,0,.1,0,.19,0,.27a3.26,3.26,0,0,0,.7,2.25,3.12,3.12,0,0,0,1.93.7Z"/><path d="M170.28,114.19a2.45,2.45,0,0,1-1.73-4.2q1.71-1.68,3.46-3.46a3.63,3.63,0,0,0,.83-1.22,9.11,9.11,0,0,1-5-5,3.59,3.59,0,0,0-1.2.81c-1.18,1.17-2.33,2.31-3.44,3.46a2.46,2.46,0,0,1-3.53-3.42c1.13-1.17,2.31-2.35,3.51-3.52A8.29,8.29,0,0,1,167,95.43a8,8,0,0,1,2.74-.32,2.45,2.45,0,0,1,2.3,2.1,4.63,4.63,0,0,0,1.3,2.65,4.78,4.78,0,0,0,2.64,1.26,2.45,2.45,0,0,1,2.08,2.32,9,9,0,0,1-.33,2.83A8.63,8.63,0,0,1,175.5,110L172,113.48A2.48,2.48,0,0,1,170.28,114.19Z"/><path d="M162.35,121.93a2.43,2.43,0,0,1-1.73-.72L152,112.52a2.45,2.45,0,0,1,0-3.45l1.67-1.71c2.08-2.13,5.26-5.39,6.09-6.22a2.45,2.45,0,1,1,3.47,3.47l-6,6.16,5.25,5.25,2.43-2.38,3.74-3.65a2.46,2.46,0,1,1,3.46,3.5l-3.77,3.67-4.16,4.06A2.44,2.44,0,0,1,162.35,121.93Z"/><path d="M118.59,157.16a2.82,2.82,0,0,1-1.85-.74c-1.55-1.72-.55-3.61,1.67-7.39,4.8-8.28,16.7-22.47,33.5-39.95a2.5,2.5,0,0,1,1.75-.75,2.14,2.14,0,0,1,1.76.72l8.67,8.69a2.43,2.43,0,0,1,.72,1.76,2.46,2.46,0,0,1-.75,1.74c-17.42,16.74-31.6,28.63-39.93,33.5C120.25,157,119.35,157.16,118.59,157.16Zm35.13-42.86C140,128.69,129.54,141,124.32,148.83c7.88-5.25,20.16-15.7,34.53-29.4Z"/><path d="M143.64,180.57a2.46,2.46,0,0,1-2.29-3.35l8.84-22.56a2.28,2.28,0,0,1,.62-.91l55.32-51.09a2.46,2.46,0,0,1,3.47.13L224,118.35a2.51,2.51,0,0,1,.65,1.77,2.45,2.45,0,0,1-.79,1.7l-55.33,51.1a2.49,2.49,0,0,1-1,.55l-23.2,7A2.45,2.45,0,0,1,143.64,180.57ZM154.56,157l-6.79,17.33,17.82-5.37,53.11-49.05-11-11.95Z"/><path d="M168.18,174.38a2.45,2.45,0,0,1-2.38-1.85l-.74-2.94-1.94-.14a2.47,2.47,0,0,1-2.24-2.06l-.49-3.07h-2.22a2.44,2.44,0,0,1-2.45-2.47v-2.18l-3-.48a2.45,2.45,0,0,1,.76-4.85l5.14.81a2.47,2.47,0,0,1,2.07,2.44v1.82h1.84a2.45,2.45,0,0,1,2.42,2.06l.52,3.23,1.76.13a2.45,2.45,0,0,1,2.2,1.85l1.18,4.64a2.45,2.45,0,0,1-1.77,3A2.62,2.62,0,0,1,168.18,174.38Z"/><path d="M222.91,121.5a2.45,2.45,0,0,1-1.73-.72l-15-15a2.43,2.43,0,0,1,0-3.47l3.91-3.9a8.13,8.13,0,0,1,11.23,0l7.21,7.2a7.9,7.9,0,0,1,2.33,5.68,7.81,7.81,0,0,1-2.34,5.58l-3.88,3.89A2.45,2.45,0,0,1,222.91,121.5Zm-11.52-17.43,11.52,11.5,2.16-2.16a3.05,3.05,0,0,0,0-4.31l-7.22-7.2a3.08,3.08,0,0,0-4.27,0Z"/><path d="M232.38,278H114.46a2.19,2.19,0,0,1-2.19-2.18V263.12a2.19,2.19,0,0,1,2.19-2.19H232.38a2.19,2.19,0,0,1,2.19,2.19v12.66A2.19,2.19,0,0,1,232.38,278Zm-115.74-4.37H230.19v-8.28H116.64Z"/><path d="M209.4,265.31H137.46a2.18,2.18,0,0,1-1.73-.85,2.22,2.22,0,0,1-.38-1.9l10.58-40.22a2.18,2.18,0,0,1,2.11-1.63h50.78a2.2,2.2,0,0,1,2.12,1.63l10.58,40.22a2.22,2.22,0,0,1-.38,1.9A2.2,2.2,0,0,1,209.4,265.31Zm-69.1-4.38h66.27l-9.44-35.85h-47.4Z"/><path d="M272.57,225.08H74.3a14.57,14.57,0,0,1-14.58-14.54V186.61a2.19,2.19,0,1,1,4.37,0,8.29,8.29,0,0,0,8.27,8.3H274.48a8.28,8.28,0,0,0,8.26-8.3,2.19,2.19,0,1,1,4.38,0v23.93A14.56,14.56,0,0,1,272.57,225.08ZM64.09,196.19v14.35A10.21,10.21,0,0,0,74.3,220.71H272.57a10.19,10.19,0,0,0,10.17-10.17V196.19a12.51,12.51,0,0,1-8.26,3.09H72.36A12.56,12.56,0,0,1,64.09,196.19Zm109.33,20.64a6.86,6.86,0,1,1,6.86-6.82A6.85,6.85,0,0,1,173.42,216.83Zm0-9.33a2.5,2.5,0,0,0-2.48,2.51,2.47,2.47,0,0,0,2.48,2.45A2.44,2.44,0,0,0,175.9,210,2.47,2.47,0,0,0,173.42,207.5Z"/><path d="M274.48,199.28H72.36a12.67,12.67,0,0,1-12.64-12.67V67.74A14.58,14.58,0,0,1,74.3,53.19h56.33a2.19,2.19,0,0,1,0,4.38H74.3A10.2,10.2,0,0,0,64.09,67.74V186.61a8.29,8.29,0,0,0,8.27,8.3H274.48a8.28,8.28,0,0,0,8.26-8.3V67.74a10.18,10.18,0,0,0-10.17-10.17H214.93a2.19,2.19,0,1,1,0-4.38h57.64a14.57,14.57,0,0,1,14.55,14.55V186.61A12.67,12.67,0,0,1,274.48,199.28Z"/><path d="M148,225.08H74.3a14.57,14.57,0,0,1-14.58-14.54V67.74A14.58,14.58,0,0,1,74.3,53.19h56.33a2.19,2.19,0,0,1,0,4.38H74.3A10.2,10.2,0,0,0,64.09,67.74v142.8A10.21,10.21,0,0,0,74.3,220.71H148a2.19,2.19,0,1,1,0,4.37Z"/><path d="M272.57,225.08H198.82a2.19,2.19,0,1,1,0-4.37h73.75a10.19,10.19,0,0,0,10.17-10.17V67.74a10.18,10.18,0,0,0-10.17-10.17H214.93a2.19,2.19,0,1,1,0-4.38h57.64a14.57,14.57,0,0,1,14.55,14.55v142.8A14.56,14.56,0,0,1,272.57,225.08Z"/><path d="M274.48,199.28H72.36a12.67,12.67,0,0,1-12.64-12.67,2.19,2.19,0,1,1,4.37,0,8.29,8.29,0,0,0,8.27,8.3H274.48a8.28,8.28,0,0,0,8.26-8.3,2.19,2.19,0,1,1,4.38,0A12.67,12.67,0,0,1,274.48,199.28Z"/><path d="M209.4,265.31a2.19,2.19,0,0,1-2.11-1.63l-10.16-38.6h-47.4l-10.15,38.6a2.19,2.19,0,1,1-4.23-1.12l10.58-40.22a2.18,2.18,0,0,1,2.11-1.63h50.78a2.2,2.2,0,0,1,2.12,1.63l10.58,40.22a2.19,2.19,0,0,1-1.56,2.68A2.15,2.15,0,0,1,209.4,265.31Z"/><path d="M173.42,216.83a6.86,6.86,0,1,1,6.86-6.82A6.85,6.85,0,0,1,173.42,216.83Zm0-9.33a2.5,2.5,0,0,0-2.48,2.51,2.47,2.47,0,0,0,2.48,2.45A2.44,2.44,0,0,0,175.9,210,2.47,2.47,0,0,0,173.42,207.5Z"/><path d="M232.38,278H114.46a2.19,2.19,0,0,1-2.19-2.18V263.12a2.19,2.19,0,0,1,2.19-2.19H232.38a2.19,2.19,0,0,1,2.19,2.19v12.66A2.19,2.19,0,0,1,232.38,278Zm-115.74-4.37H230.19v-8.28H116.64Z"/><path d="M214.93,57.57h-84.3a2.19,2.19,0,1,1,0-4.38h84.3a2.19,2.19,0,0,1,0,4.38Z"/></g></svg>