<svg xmlns="http://www.w3.org/2000/svg" viewBox="0 0 355.14 355.14"><defs><style>.cls-1{fill:#0096c8;}.cls-2{fill:#ff7400;}.cls-3{fill:#ffde9a;}</style></defs><g id="Layer_1" data-name="Layer 1"><path class="cls-1" d="M65.72,268.47c-.8-3.59,1.53-126.76,1.53-126.76h189V245.09L211,210.7l-37.19,29L138.64,213.1Z"/><path class="cls-2" d="M67.55,300.08c1.5-.3,188.66,0,188.66,0L254.71,244l-45.13-32.13-35.75,27.87-35.59-27.87L67.55,269.68Z"/><path class="cls-3" d="M98.44,141.71c2.22.5,155.55,0,155.55,0l2.22,126.76,31.49,1.31-1.49-157.16H98.44Z"/><ellipse class="cls-2" cx="182.81" cy="185.49" rx="15.08" ry="14.38"/><ellipse class="cls-1" cx="194.09" cy="45.95" rx="7.38" ry="7.95"/><path d="M287.54,272H256.18a2.19,2.19,0,0,1,0-4.38h29.17V114.73H100.66v27.48a2.19,2.19,0,1,1-4.37,0V112.54a2.19,2.19,0,0,1,2.19-2.19H287.54a2.19,2.19,0,0,1,2.18,2.19V269.81A2.19,2.19,0,0,1,287.54,272Z"/><path d="M256.18,301.7H67.11a2.19,2.19,0,0,1-2.19-2.19V142.21A2.19,2.19,0,0,1,67.11,140H256.18a2.19,2.19,0,0,1,2.18,2.19v157.3A2.19,2.19,0,0,1,256.18,301.7ZM69.3,297.32H254V144.4H69.3Z"/><path d="M256.18,247.32a2.2,2.2,0,0,1-1.31-.44L210.22,213.6,175.53,242a2.19,2.19,0,1,1-2.77-3.38l36-29.48a2.19,2.19,0,0,1,2.69-.06l46,34.3a2.19,2.19,0,0,1-1.3,3.95Z"/><path d="M67.11,272.34a2.21,2.21,0,0,1-1.69-.79,2.18,2.18,0,0,1,.3-3.08L136.4,210a2.2,2.2,0,0,1,2.75,0L200.21,258a2.19,2.19,0,1,1-2.71,3.44l-59.67-47L68.51,271.84A2.19,2.19,0,0,1,67.11,272.34Z"/><path d="M182.12,202.51a16.4,16.4,0,1,1,16.4-16.4A16.42,16.42,0,0,1,182.12,202.51Zm0-28.42a12,12,0,1,0,12,12A12,12,0,0,0,182.12,174.09Z"/><path d="M260.35,114.7a2.18,2.18,0,0,1-1.55-.64L198.52,53.77a2.19,2.19,0,1,1,3.1-3.1L261.9,111a2.2,2.2,0,0,1,0,3.1A2.18,2.18,0,0,1,260.35,114.7Zm-132.82,0a2.14,2.14,0,0,1-1.54-.64,2.18,2.18,0,0,1,0-3.1l60.28-60.29a2.19,2.19,0,0,1,3.09,3.1l-60.28,60.29A2.18,2.18,0,0,1,127.53,114.7Z"/><path d="M194,56.93a10.85,10.85,0,1,1,10.86-10.85A10.87,10.87,0,0,1,194,56.93Zm0-17.32a6.47,6.47,0,1,0,6.49,6.47A6.48,6.48,0,0,0,194,39.61Z"/></g></svg>